<svg id="Layer_1" data-name="Layer 1" xmlns="http://www.w3.org/2000/svg" xmlns:xlink="http://www.w3.org/1999/xlink" viewBox="0 0 131.4 25.47"><defs><style>.cls-1{fill:url(#linear-gradient);}.cls-2{fill:url(#linear-gradient-2);}.cls-3{fill:url(#linear-gradient-3);}.cls-4{fill:url(#linear-gradient-4);}.cls-5{fill:url(#linear-gradient-5);}.cls-6{fill:url(#linear-gradient-6);}.cls-7{fill:url(#linear-gradient-7);}.cls-8{fill:url(#linear-gradient-8);}.cls-9{fill:url(#linear-gradient-9);}.cls-10{fill:url(#linear-gradient-10);}.cls-11{fill:url(#linear-gradient-11);}.cls-12{fill:url(#linear-gradient-12);}.cls-13{fill:url(#linear-gradient-13);}</style><linearGradient id="linear-gradient" x1="418.5" y1="-0.74" x2="-58.46" y2="14.9" gradientUnits="userSpaceOnUse"><stop offset="0" stop-color="#4e6eb3"/><stop offset="1" stop-color="#50bfe2"/></linearGradient><linearGradient id="linear-gradient-2" x1="418.71" y1="5.74" x2="-58.25" y2="21.38" xlink:href="#linear-gradient"/><linearGradient id="linear-gradient-3" x1="418.59" y1="2.13" x2="-58.37" y2="17.76" xlink:href="#linear-gradient"/><linearGradient id="linear-gradient-4" x1="418.67" y1="4.56" x2="-58.29" y2="20.2" xlink:href="#linear-gradient"/><linearGradient id="linear-gradient-5" x1="418.53" y1="0.16" x2="-58.43" y2="15.8" xlink:href="#linear-gradient"/><linearGradient id="linear-gradient-6" x1="418.7" y1="5.36" x2="-58.26" y2="21" xlink:href="#linear-gradient"/><linearGradient id="linear-gradient-7" x1="418.69" y1="5" x2="-58.27" y2="20.64" xlink:href="#linear-gradient"/><linearGradient id="linear-gradient-8" x1="418.75" y1="6.77" x2="-58.21" y2="22.41" xlink:href="#linear-gradient"/><linearGradient id="linear-gradient-9" x1="418.77" y1="7.6" x2="-58.19" y2="23.24" xlink:href="#linear-gradient"/><linearGradient id="linear-gradient-10" x1="418.89" y1="11.15" x2="-58.07" y2="26.79" xlink:href="#linear-gradient"/><linearGradient id="linear-gradient-11" x1="418.49" y1="-0.91" x2="-58.46" y2="14.73" xlink:href="#linear-gradient"/><linearGradient id="linear-gradient-12" x1="418.6" y1="2.39" x2="-58.36" y2="18.03" xlink:href="#linear-gradient"/><linearGradient id="linear-gradient-13" x1="418.71" y1="5.73" x2="-58.25" y2="21.37" xlink:href="#linear-gradient"/></defs><path class="cls-1" d="M12.57,25.14A12.56,12.56,0,0,1,7.59,1,12.46,12.46,0,0,1,17.2.89a12.58,12.58,0,0,1,4.15,2.69L19.13,5.85A9.39,9.39,0,1,0,19,19.4l2.18,2.31a12.69,12.69,0,0,1-8.63,3.43Z"/><path class="cls-2" d="M72.14,25.33a8.22,8.22,0,1,1,5.77-14.1L75.69,13.5a5.06,5.06,0,0,0-8.23,1.75,5.06,5.06,0,0,0,.06,3.86A5,5,0,0,0,70.3,21.8a5.08,5.08,0,0,0,5.33-1l2.17,2.31A8.26,8.26,0,0,1,72.14,25.33Z"/><path class="cls-3" d="M93,25.31H87.42a6.72,6.72,0,0,1-6.72-6.72V.69h3.17v17.9a3.55,3.55,0,0,0,3.55,3.55H93Z"/><rect class="cls-4" x="32.66" y="8.85" width="3.17" height="16.62"/><rect class="cls-5" x="25.67" y="0.51" width="3.17" height="24.96"/><rect class="cls-6" x="57.05" y="8.85" width="3.17" height="16.62"/><path class="cls-7" d="M53.23,25.47H50.05v-10a3.62,3.62,0,1,0-7.24,0v10H39.64v-10a6.8,6.8,0,0,1,13.59,0Z"/><path class="cls-8" d="M103.47,25.27a8.17,8.17,0,1,1,8.16-8.16A8.18,8.18,0,0,1,103.47,25.27Zm0-13.15a5,5,0,1,0,5,5A5,5,0,0,0,103.47,12.12Z"/><path class="cls-9" d="M123.23,25.45a8.16,8.16,0,1,1,8.17-8.16A8.17,8.17,0,0,1,123.23,25.45Zm0-13.15a5,5,0,1,0,5,5A5,5,0,0,0,123.23,12.3Z"/><rect class="cls-10" x="108.45" y="17.2" width="3.17" height="8.16"/><rect class="cls-11" x="115.07" y="0.69" width="3.17" height="16.59"/><path class="cls-12" d="M13.1,22.42s7.78-4.71,3.06-13.57C16.16,8.85,8.59,12.91,13.1,22.42Z"/><path class="cls-13" d="M13.54,22.64s.11-6.51-7.06-7C6.48,15.62,6.07,21.76,13.54,22.64Z"/></svg>